<?xml version="1.0" encoding="UTF-8" standalone="no"?>
<svg
   width="16"
   height="16"
   version="1.1"
   id="svg1"
   sodipodi:docname="AutoScrollContainer.svg"
   inkscape:version="1.3.2 (091e20e, 2023-11-25, custom)"
   xmlns:inkscape="http://www.inkscape.org/namespaces/inkscape"
   xmlns:sodipodi="http://sodipodi.sourceforge.net/DTD/sodipodi-0.dtd"
   xmlns="http://www.w3.org/2000/svg"
   xmlns:svg="http://www.w3.org/2000/svg">
  <defs
     id="defs1" />
  <sodipodi:namedview
     id="namedview1"
     pagecolor="#505050"
     bordercolor="#eeeeee"
     borderopacity="1"
     inkscape:showpageshadow="0"
     inkscape:pageopacity="0"
     inkscape:pagecheckerboard="0"
     inkscape:deskcolor="#505050"
     inkscape:zoom="50"
     inkscape:cx="7.99"
     inkscape:cy="8"
     inkscape:window-width="1920"
     inkscape:window-height="1009"
     inkscape:window-x="-8"
     inkscape:window-y="329"
     inkscape:window-maximized="1"
     inkscape:current-layer="svg1" />
  <path
     id="path1"
     d="M 3,1 C 1.8954305,1 1,1.8954305 1,3 v 10 c 0,1.104569 0.8954305,2 2,2 l 5.62625,0.02 0.740234,-2 L 3,13 V 3 h 10 l 0.12,5.3617969 0.441932,0.4410615 1.52463,3.9249536 C 14.969474,9.479597 15,4.5425059 15,3 15,1.8954305 14.104569,1 13,1 Z M 8,4 6,6 h 4 z m 2,2 v 4 l 2,-2 z m 0,4 H 6 l 2,2 z M 6,10 V 6 L 4,8 Z"
     sodipodi:nodetypes="ssssccccccccssscccccccccccccccc"
     style="fill:#8eef97;fill-opacity:1" />
  <path
     d="m 15.022396,15.276267 h -0.899915 l -0.62269,-1.769975 h -2.74666 l -0.62269,1.769975 H 9.2731758 L 11.54514,9.2685428 h 1.12596 z m -1.78277,-2.495025 -1.113165,-3.1177151 -1.11743,3.1177151 z"
     id="text1"
     style="font-size:8.73472px;display:inline;fill:#8eef97;stroke:#8eef97;stroke-width:0.702408;stroke-linejoin:round;paint-order:stroke fill markers"
     transform="scale(1.0084144,0.99165581)"
     aria-label="A"
     sodipodi:nodetypes="ccccccccccccc" />
</svg>
