<?xml version="1.0" encoding="UTF-8"?>
<svg width="16" height="16" version="1.1" xmlns="http://www.w3.org/2000/svg"><path d="m3 1c-1.1046 0-2 0.89543-2 2v10c0 1.1046 0.89543 2 2 2l5.6262 0.02 0.74023-2-6.3665-0.02v-10h10l0.12 5.3618 0.44193 0.44106 1.5246 3.925c-0.11709-3.2482-0.086562-8.1853-0.086562-9.7278 0-1.1046-0.89543-2-2-2zm5 3-2 2h4zm2 2v4l2-2zm0 4h-4l2 2zm-4 0v-4l-2 2z" fill="#8eef97"/><path transform="scale(1.0084 .99166)" d="m15.022 15.276h-0.89992l-0.62269-1.77h-2.7467l-0.62269 1.77h-0.85727l2.272-6.0077h1.126zm-1.7828-2.495-1.1132-3.1177-1.1174 3.1177z" fill="#8eef97" stroke="#8eef97" stroke-linejoin="round" stroke-width=".70241" style="paint-order:stroke fill markers" aria-label="A"/></svg>
